<svg width="24" height="18" viewBox="0 0 24 18" fill="none" xmlns="http://www.w3.org/2000/svg"><path d="M17.9997 11.5C17.0917 11.5002 16.1959 11.7082 15.3807 12.108C15.3181 12.1387 15.2626 12.1821 15.2178 12.2354C15.1729 12.2888 15.1397 12.351 15.1203 12.4179C15.1009 12.4849 15.0958 12.5551 15.1051 12.6242C15.1145 12.6933 15.1382 12.7596 15.1747 12.819C16.0409 14.2267 16.4995 15.8471 16.4997 17.5C16.4997 17.6326 16.5524 17.7598 16.6461 17.8536C16.7399 17.9473 16.8671 18 16.9997 18H23.4997C23.6323 18 23.7595 17.9473 23.8532 17.8536C23.947 17.7598 23.9997 17.6326 23.9997 17.5C23.9997 15.9087 23.3676 14.3826 22.2423 13.2574C21.1171 12.1321 19.591 11.5 17.9997 11.5Z" fill="#5E6AD2"></path><path d="M17.9443 11C20.0154 11 21.6943 9.32107 21.6943 7.25C21.6943 5.17893 20.0154 3.5 17.9443 3.5C15.8733 3.5 14.1943 5.17893 14.1943 7.25C14.1943 9.32107 15.8733 11 17.9443 11Z" fill="#5E6AD2"></path><path d="M7.5 9.5C10.1234 9.5 12.25 7.37335 12.25 4.75C12.25 2.12665 10.1234 0 7.5 0C4.87665 0 2.75 2.12665 2.75 4.75C2.75 7.37335 4.87665 9.5 7.5 9.5Z" fill="#5E6AD2"></path><path d="M15 17.5C15 15.5109 14.2098 13.6032 12.8033 12.1967C11.3968 10.7902 9.48912 10 7.5 10C5.51088 10 3.60322 10.7902 2.1967 12.1967C0.790176 13.6032 0 15.5109 0 17.5C0 17.6326 0.0526784 17.7598 0.146447 17.8536C0.240215 17.9473 0.367392 18 0.5 18H14.5C14.6326 18 14.7598 17.9473 14.8536 17.8536C14.9473 17.7598 15 17.6326 15 17.5Z" fill="#5E6AD2"></path></svg>