<svg width="16" height="24" viewBox="0 0 16 24" fill="none" xmlns="http://www.w3.org/2000/svg"><path d="M4.00001 24C5.06088 24 6.0783 23.5786 6.82844 22.8284C7.57859 22.0783 8.00002 21.0609 8.00002 20V16H4.00001C2.93914 16 1.92172 16.4214 1.17158 17.1716C0.421428 17.9217 0 18.9391 0 20C0 21.0609 0.421428 22.0783 1.17158 22.8284C1.92172 23.5786 2.93914 24 4.00001 24V24Z" fill="#0ACF83"></path><path d="M0 12C0 10.9391 0.421428 9.92172 1.17158 9.17158C1.92172 8.42143 2.93914 8 4.00001 8H8.00002V16H4.00001C2.93914 16 1.92172 15.5786 1.17158 14.8284C0.421428 14.0783 0 13.0609 0 12V12Z" fill="#A259FF"></path><path d="M0 4.00001C-3.23586e-07 2.93968 0.420999 1.92274 1.17047 1.17268C1.91994 0.422622 2.93656 0.000828381 3.99688 0L7.99689 0V8.00002H4.00001C2.93914 8.00002 1.92172 7.57859 1.17158 6.82844C0.421428 6.0783 0 5.06088 0 4.00001V4.00001Z" fill="#F24E1E"></path><path d="M7.99998 0H12C13.0609 0 14.0783 0.421428 14.8284 1.17158C15.5786 1.92172 16 2.93914 16 4.00001C16 5.06088 15.5786 6.0783 14.8284 6.82844C14.0783 7.57859 13.0609 8.00002 12 8.00002H7.99998V0Z" fill="#FF7262"></path><path d="M16 12C16 13.0609 15.5786 14.0783 14.8284 14.8284C14.0783 15.5786 13.0609 16 12 16C10.9391 16 9.92171 15.5786 9.17156 14.8284C8.42141 14.0783 7.99998 13.0609 7.99998 12C7.99998 10.9391 8.42141 9.92172 9.17156 9.17158C9.92171 8.42143 10.9391 8 12 8C13.0609 8 14.0783 8.42143 14.8284 9.17158C15.5786 9.92172 16 10.9391 16 12V12Z" fill="#1ABCFE"></path></svg>