<svg width="24" height="24" viewBox="0 0 24 24" fill="none" xmlns="http://www.w3.org/2000/svg"><g clip-path="url(#clip0)"><path fill-rule="evenodd" clip-rule="evenodd" d="M11.4366 11.959C11.4371 9.56484 12.201 7.23323 13.6174 5.30302C15.0338 3.37282 17.0289 1.94461 19.3126 1.22599C17.6278 0.696766 15.842 0.571646 14.0998 0.860751C12.3575 1.14986 10.7079 1.84506 9.28422 2.89011C7.86059 3.93516 6.70298 5.3007 5.90508 6.87621C5.10718 8.45172 4.69141 10.193 4.69141 11.959C4.69141 13.725 5.10718 15.4662 5.90508 17.0418C6.70298 18.6173 7.86059 19.9828 9.28422 21.0279C10.7079 22.0729 12.3575 22.7681 14.0998 23.0572C15.842 23.3463 17.6278 23.2212 19.3126 22.692C17.0289 21.9734 15.0338 20.5452 13.6174 18.6149C12.201 16.6847 11.4371 14.3531 11.4366 11.959V11.959Z" stroke="#5E6AD2" stroke-width="1.5" stroke-linecap="round" stroke-linejoin="round"></path></g><defs><clipPath id="clip0"><rect width="24" height="24" fill="white"></rect></clipPath></defs></svg>