<svg width="25" height="24" viewBox="0 0 25 24" fill="none" xmlns="http://www.w3.org/2000/svg"><path d="M12.9997 5.30104e-07C10.1429 -0.000848216 7.3795 1.01752 5.20642 2.87199C3.03335 4.72645 1.59316 7.29535 1.14482 10.1168C0.696479 12.9382 1.26941 15.8269 2.76058 18.2637C4.25176 20.7004 6.56335 22.5252 9.27969 23.41H9.56969C9.71117 23.4188 9.8529 23.3974 9.98549 23.3472C10.1181 23.297 10.2385 23.2193 10.3387 23.119C10.4389 23.0188 10.5167 22.8984 10.5669 22.7658C10.6171 22.6332 10.6385 22.4915 10.6297 22.35V22.14C10.6297 21.97 10.6297 21.74 10.6297 21.05C10.6199 20.9845 10.5971 20.9216 10.5628 20.8649C10.5285 20.8083 10.4832 20.759 10.4297 20.72C10.3716 20.673 10.3037 20.6396 10.231 20.6223C10.1584 20.605 10.0827 20.6042 10.0097 20.62C7.32969 21.2 6.75969 19.52 6.71969 19.41C6.3841 18.5211 5.78372 17.7567 4.99969 17.22C4.95271 17.1794 4.90255 17.1426 4.84969 17.11C4.96589 17.0474 5.09881 17.023 5.22969 17.04C5.48102 17.0749 5.71904 17.1744 5.92056 17.3286C6.12208 17.4828 6.28026 17.6865 6.37969 17.92C6.76654 18.5936 7.39957 19.0909 8.1456 19.3072C8.89162 19.5236 9.69249 19.4421 10.3797 19.08C10.4534 19.0478 10.5183 18.9982 10.5688 18.9355C10.6193 18.8729 10.6539 18.7989 10.6697 18.72C10.708 18.2574 10.906 17.8226 11.2297 17.49C11.3016 17.4262 11.3535 17.343 11.3793 17.2504C11.4051 17.1578 11.4037 17.0597 11.3752 16.9679C11.3467 16.8761 11.2924 16.7945 11.2187 16.7328C11.145 16.6711 11.0551 16.6319 10.9597 16.62C8.58969 16.35 6.16969 15.52 6.16969 11.43C6.14971 10.4029 6.52568 9.40745 7.21969 8.65C7.2836 8.5794 7.32603 8.49202 7.34198 8.39812C7.35792 8.30423 7.34672 8.20774 7.30969 8.12C7.03177 7.34353 7.0353 6.49413 7.31969 5.72C8.24351 5.88376 9.11062 6.27946 9.83969 6.87C9.89992 6.91251 9.96897 6.94089 10.0417 6.95301C10.1144 6.96513 10.1889 6.96068 10.2597 6.94C11.153 6.69768 12.0741 6.57329 12.9997 6.57C13.9287 6.57078 14.8535 6.69521 15.7497 6.94C15.819 6.95912 15.8916 6.96276 15.9625 6.95066C16.0333 6.93856 16.1007 6.91103 16.1597 6.87C16.8899 6.28132 17.7565 5.88585 18.6797 5.72C18.9519 6.48998 18.9519 7.33002 18.6797 8.1C18.6427 8.18774 18.6315 8.28423 18.6474 8.37813C18.6633 8.47202 18.7058 8.5594 18.7697 8.63C19.4565 9.37988 19.832 10.3632 19.8197 11.38C19.8197 15.47 17.3897 16.29 15.0097 16.56C14.9121 16.5702 14.8196 16.6088 14.7438 16.6712C14.668 16.7335 14.6123 16.8168 14.5835 16.9107C14.5547 17.0045 14.5541 17.1047 14.5819 17.1988C14.6097 17.293 14.6646 17.3768 14.7397 17.44C14.9612 17.6686 15.1305 17.9426 15.2358 18.243C15.3411 18.5434 15.38 18.8631 15.3497 19.18V22.36C15.3447 22.5163 15.3744 22.6718 15.4367 22.8153C15.4989 22.9588 15.5922 23.0868 15.7097 23.19C15.8594 23.3021 16.0331 23.3776 16.2172 23.4106C16.4012 23.4436 16.5904 23.4331 16.7697 23.38C19.4678 22.4774 21.7574 20.6454 23.23 18.2111C24.7026 15.7768 25.2624 12.8984 24.8095 10.0896C24.3566 7.28083 22.9204 4.72431 20.7573 2.87625C18.5942 1.02818 15.8448 0.00880536 12.9997 5.30104e-07Z" fill="white"></path></svg>