<svg width="52" height="48" viewBox="0 0 52 48" fill="none" xmlns="http://www.w3.org/2000/svg"><path d="M51.8063 27.7621L48.9326 18.9296L43.2459 1.41061C43.1804 1.21516 43.0552 1.04523 42.8879 0.924828C42.7206 0.804429 42.5197 0.739652 42.3136 0.739652C42.1074 0.739652 41.9065 0.804429 41.7392 0.924828C41.5719 1.04523 41.4467 1.21516 41.3812 1.41061L35.6946 18.919H16.8002L11.1135 1.41061C11.0485 1.21497 10.9235 1.04478 10.7563 0.924167C10.5891 0.803556 10.3881 0.738647 10.182 0.738647C9.9758 0.738647 9.77486 0.803556 9.60765 0.924167C9.44044 1.04478 9.31545 1.21497 9.25039 1.41061L3.57283 18.919L0.69909 27.7621C0.57142 28.1547 0.571163 28.5776 0.698357 28.9704C0.825551 29.3632 1.07368 29.7057 1.40727 29.9489L26.2497 47.9998L51.0875 29.9489C51.4226 29.7068 51.6726 29.3649 51.8017 28.9721C51.9308 28.5793 51.9324 28.1558 51.8063 27.7621" fill="#FC6D26"></path><path d="M26.2508 47.9891L35.6972 18.9204H16.8089L26.2508 47.9891Z" fill="#E24329"></path><path d="M26.251 47.9891L16.8016 18.9204H3.58026L26.251 47.9891Z" fill="#FC6D26"></path><path d="M3.56959 18.9261L0.695854 27.7586C0.568185 28.1512 0.567929 28.5741 0.695123 28.9669C0.822316 29.3597 1.07045 29.7022 1.40403 29.9454L26.251 47.9994L3.56959 18.9261Z" fill="#FCA326"></path><path d="M3.57376 18.9281H16.8118L11.1145 1.4212C11.049 1.22575 10.9238 1.05582 10.7565 0.935421C10.5892 0.815021 10.3883 0.750244 10.1821 0.750244C9.97602 0.750244 9.77511 0.815021 9.60781 0.935421C9.44051 1.05582 9.31528 1.22575 9.24981 1.4212L3.57376 18.9281Z" fill="#E24329"></path><path d="M26.2512 47.9891L35.6976 18.9204H48.9402L26.2512 47.9891Z" fill="#FC6D26"></path><path d="M48.9311 18.9261L51.8048 27.7586C51.9332 28.1512 51.9338 28.5743 51.8066 28.9672C51.6793 29.3602 51.4308 29.7027 51.0966 29.9454L26.2512 47.9857L48.925 18.9261H48.9311Z" fill="#FCA326"></path><path d="M48.9371 18.9247H35.7006L41.3873 1.41781C41.4524 1.22217 41.5774 1.05198 41.7446 0.931369C41.9118 0.810758 42.1127 0.74585 42.3189 0.74585C42.5251 0.74585 42.726 0.810758 42.8932 0.931369C43.0604 1.05198 43.1854 1.22217 43.2505 1.41781L48.9371 18.9247Z" fill="#E24329"></path></svg>