<svg width="22" height="22" viewBox="0 0 22 22" fill="none" xmlns="http://www.w3.org/2000/svg"><path d="M20.1667 0H1.83333C1.3471 0 0.880788 0.193154 0.536971 0.536971C0.193154 0.880788 0 1.3471 0 1.83333L0 20.1667C0 20.6529 0.193154 21.1192 0.536971 21.463C0.880788 21.8068 1.3471 22 1.83333 22H20.1667C20.6529 22 21.1192 21.8068 21.463 21.463C21.8068 21.1192 22 20.6529 22 20.1667V1.83333C22 1.3471 21.8068 0.880788 21.463 0.536971C21.1192 0.193154 20.6529 0 20.1667 0V0ZM13.75 2.29167V19.7083C13.75 19.8299 13.7017 19.9465 13.6158 20.0324C13.5298 20.1184 13.4132 20.1667 13.2917 20.1667H8.70833C8.58678 20.1667 8.4702 20.1184 8.38424 20.0324C8.29829 19.9465 8.25 19.8299 8.25 19.7083V2.29167C8.25 2.17011 8.29829 2.05353 8.38424 1.96758C8.4702 1.88162 8.58678 1.83333 8.70833 1.83333H13.2917C13.4132 1.83333 13.5298 1.88162 13.6158 1.96758C13.7017 2.05353 13.75 2.17011 13.75 2.29167ZM2.29167 1.83333H5.95833C6.07989 1.83333 6.19647 1.88162 6.28242 1.96758C6.36838 2.05353 6.41667 2.17011 6.41667 2.29167V19.7083C6.41667 19.8299 6.36838 19.9465 6.28242 20.0324C6.19647 20.1184 6.07989 20.1667 5.95833 20.1667H2.29167C2.17011 20.1667 2.05353 20.1184 1.96758 20.0324C1.88162 19.9465 1.83333 19.8299 1.83333 19.7083V2.29167C1.83333 2.17011 1.88162 2.05353 1.96758 1.96758C2.05353 1.88162 2.17011 1.83333 2.29167 1.83333V1.83333ZM19.7083 20.1667H16.0417C15.9201 20.1667 15.8035 20.1184 15.7176 20.0324C15.6316 19.9465 15.5833 19.8299 15.5833 19.7083V2.29167C15.5833 2.17011 15.6316 2.05353 15.7176 1.96758C15.8035 1.88162 15.9201 1.83333 16.0417 1.83333H19.7083C19.8299 1.83333 19.9465 1.88162 20.0324 1.96758C20.1184 2.05353 20.1667 2.17011 20.1667 2.29167V19.7083C20.1667 19.8299 20.1184 19.9465 20.0324 20.0324C19.9465 20.1184 19.8299 20.1667 19.7083 20.1667Z" fill="#5E6AD2"></path></svg>