<svg width="25" height="24" viewBox="0 0 25 24" fill="none" xmlns="http://www.w3.org/2000/svg"><path d="M16.2571 6.97431C17.082 7.55418 17.7315 8.34969 18.1347 9.27384C18.2167 9.44765 18.3492 9.59267 18.5149 9.6899C18.6806 9.78712 18.8719 9.83203 19.0636 9.81873C19.7007 9.79284 20.334 9.92915 20.9041 10.2149C21.4741 10.5006 21.9623 10.9264 22.3229 11.4524C22.7603 12.0827 22.99 12.8338 22.9797 13.6009C23.0135 14.5352 22.6764 15.4448 22.0419 16.1314C21.8616 16.3187 21.7619 16.5692 21.7641 16.8292C21.7664 17.0892 21.8704 17.338 22.0539 17.5221C22.1502 17.617 22.2645 17.6916 22.3901 17.7413C22.5158 17.7911 22.6501 17.8151 22.7852 17.8118C22.9203 17.8085 23.0534 17.7781 23.1764 17.7223C23.2995 17.6666 23.4101 17.5866 23.5016 17.4871C24.4527 16.479 24.9815 15.1449 24.9793 13.7589C25.0245 12.2946 24.5105 10.8681 23.5416 9.76924C22.5727 8.67039 21.2218 7.98169 19.7634 7.84313C19.7244 7.83935 19.6869 7.82653 19.6538 7.80571C19.6206 7.78488 19.5928 7.75662 19.5725 7.72316C18.8868 6.5872 17.9204 5.64681 16.7661 4.99246C15.6119 4.33811 14.3086 3.99183 12.9818 3.98693C12.2212 3.98663 11.4649 4.10089 10.7383 4.32586C10.0874 4.52582 9.93144 5.17069 10.3614 5.82555C10.473 6.00076 10.6408 6.13298 10.8372 6.2007C11.0336 6.26842 11.2472 6.26763 11.4431 6.19847C12.2544 5.97597 13.1039 5.9301 13.9343 6.06394C14.7648 6.19778 15.5569 6.50822 16.2571 6.97431Z" fill="#5E6AD2"></path><path d="M5.7955 17.3751C5.00229 17.3604 4.23722 17.0786 3.62395 16.5753C3.39985 16.337 3.22742 16.0549 3.11748 15.7467C3.00755 15.4386 2.96247 15.1111 2.98508 14.7847C2.98535 14.099 3.2578 13.4414 3.74258 12.9564C4.22736 12.4714 4.88483 12.1987 5.57055 12.1982C5.7502 12.1984 5.92938 12.2164 6.10544 12.2522C6.24584 12.2823 6.39112 12.2815 6.53115 12.2497C6.67119 12.2179 6.80261 12.156 6.91627 12.0682C7.03021 11.9809 7.12401 11.8701 7.19129 11.7433C7.25857 11.6165 7.29776 11.4767 7.30619 11.3334C7.32019 11.1094 7.32519 10.8275 7.32119 10.6085C7.31219 10.1086 7.34318 9.87569 7.06024 9.59275C6.94009 9.47246 6.78973 9.38679 6.62499 9.34474C6.46025 9.30269 6.28723 9.30583 6.12412 9.35382C5.96102 9.40181 5.81387 9.49288 5.69815 9.61744C5.58244 9.74201 5.50244 9.89546 5.46657 10.0617V10.0806C5.4597 10.1143 5.4418 10.1446 5.41572 10.1669C5.38964 10.1892 5.35687 10.2021 5.3226 10.2036C4.56707 10.248 3.83383 10.4763 3.18667 10.8688C2.53952 11.2612 1.99805 11.8058 1.60937 12.4552C1.17024 13.194 0.953621 14.0438 0.985495 14.9027C0.973554 15.4756 1.07668 16.0451 1.28877 16.5775C1.50086 17.1098 1.8176 17.5942 2.22024 18.002C3.20581 18.8757 4.4735 19.3645 5.7905 19.3787H14.4237C14.6214 19.3787 14.8147 19.32 14.9791 19.2102C15.1434 19.1003 15.2716 18.9442 15.3472 18.7615C15.4229 18.5788 15.4427 18.3779 15.4041 18.1839C15.3655 17.99 15.2704 17.8119 15.1306 17.6721C14.9431 17.4846 14.6889 17.3792 14.4237 17.3791L5.7955 17.3751Z" fill="#5E6AD2"></path><path d="M23.2741 23.6898C23.4627 23.8719 23.7152 23.9727 23.9774 23.9704C24.2395 23.9682 24.4903 23.863 24.6757 23.6776C24.861 23.4923 24.9662 23.2415 24.9684 22.9794C24.9707 22.7172 24.87 22.4647 24.6878 22.2761L2.69237 0.280654C2.50381 0.0985335 2.25126 -0.00224015 1.98912 3.77948e-05C1.72697 0.00231574 1.47621 0.107463 1.29084 0.292833C1.10547 0.478203 1.00033 0.728963 0.998047 0.991106C0.995769 1.25325 1.09654 1.5058 1.27866 1.69436L23.2741 23.6898Z" fill="#5E6AD2"></path></svg>